<?xml version="1.0" encoding="UTF-8" standalone="no"?>
<!-- Created with Inkscape (http://www.inkscape.org/) -->

<svg
   xmlns:dc="http://purl.org/dc/elements/1.1/"
   xmlns:cc="http://creativecommons.org/ns#"
   xmlns:rdf="http://www.w3.org/1999/02/22-rdf-syntax-ns#"
   xmlns:svg="http://www.w3.org/2000/svg"
   xmlns="http://www.w3.org/2000/svg"
   xmlns:xlink="http://www.w3.org/1999/xlink"
   xmlns:sodipodi="http://sodipodi.sourceforge.net/DTD/sodipodi-0.dtd"
   xmlns:inkscape="http://www.inkscape.org/namespaces/inkscape"
   width="215mm"
   height="135mm"
   viewBox="0 0 761.81101 478.34641"
   id="svg2"
   version="1.1"
   inkscape:version="0.91 r13725"
   sodipodi:docname="logo.svg">
  <defs
     id="defs4">
    <linearGradient
       id="linearGradient5719"
       inkscape:collect="always">
      <stop
         id="stop5721"
         offset="0"
         style="stop-color:#000000;stop-opacity:0" />
      <stop
         id="stop5723"
         offset="1"
         style="stop-color:#000000;stop-opacity:1" />
    </linearGradient>
    <linearGradient
       inkscape:collect="always"
       id="linearGradient5607-5-2-5">
      <stop
         style="stop-color:#0d64a1;stop-opacity:1"
         offset="0"
         id="stop5635" />
      <stop
         style="stop-color:#2196f3;stop-opacity:1"
         offset="1"
         id="stop5637" />
    </linearGradient>
    <linearGradient
       inkscape:collect="always"
       xlink:href="#linearGradient5607-5-2-5"
       id="linearGradient5613"
       x1="185.21687"
       y1="969.17444"
       x2="393.85434"
       y2="595.77325"
       gradientUnits="userSpaceOnUse"
       spreadMethod="pad"
       gradientTransform="matrix(1.0249793,0,0,0.91416623,-0.02523292,90.328217)" />
    <linearGradient
       inkscape:collect="always"
       xlink:href="#linearGradient5719"
       id="linearGradient5695"
       x1="-121.73627"
       y1="230.08266"
       x2="268.30927"
       y2="224.64839"
       gradientUnits="userSpaceOnUse"
       gradientTransform="matrix(0.95662284,0,0,0.95662284,-15.476747,12.222466)" />
    <linearGradient
       inkscape:collect="always"
       xlink:href="#linearGradient5719"
       id="linearGradient5731"
       x1="76.334709"
       y1="258.74979"
       x2="206.16312"
       y2="265.36133"
       gradientUnits="userSpaceOnUse"
       gradientTransform="matrix(0.51592581,-0.81682127,0.73152565,0.63106788,11.469357,15.674792)" />
    <linearGradient
       inkscape:collect="always"
       xlink:href="#linearGradient5719"
       id="linearGradient5740"
       x1="138.29916"
       y1="429.19312"
       x2="454.89511"
       y2="485.36798"
       gradientUnits="userSpaceOnUse"
       gradientTransform="matrix(0.67923566,-0.9201514,0.8411894,0.7639526,-82.105891,-7.4588231)" />
    <linearGradient
       gradientTransform="matrix(0.60560765,-0.77094119,0.76205097,0.61675706,429.30147,-40.625018)"
       inkscape:collect="always"
       xlink:href="#linearGradient5719"
       id="linearGradient5695-1"
       x1="-116.69481"
       y1="190.03369"
       x2="92.613976"
       y2="197.46089"
       gradientUnits="userSpaceOnUse" />
    <linearGradient
       inkscape:collect="always"
       xlink:href="#linearGradient5719"
       id="linearGradient5783"
       x1="269.81299"
       y1="590.24756"
       x2="529.80341"
       y2="576.99017"
       gradientUnits="userSpaceOnUse"
       gradientTransform="matrix(0.50275894,-0.43349809,0.52852181,0.41124662,213.65317,93.179452)" />
  </defs>
  <sodipodi:namedview
     id="base"
     pagecolor="#ffffff"
     bordercolor="#666666"
     borderopacity="1.0"
     inkscape:pageopacity="0.0"
     inkscape:pageshadow="2"
     inkscape:zoom="0.7"
     inkscape:cx="330.37432"
     inkscape:cy="493.75956"
     inkscape:document-units="px"
     inkscape:current-layer="layer1"
     showgrid="false"
     showguides="true"
     inkscape:guide-bbox="true"
     inkscape:window-width="1852"
     inkscape:window-height="1057"
     inkscape:window-x="60"
     inkscape:window-y="-8"
     inkscape:window-maximized="1"
     units="mm">
    <sodipodi:guide
       position="487.90367,456.58897"
       orientation="0,1"
       id="guide4137" />
    <sodipodi:guide
       position="14.142135,208.09143"
       orientation="1,0"
       id="guide4139" />
    <sodipodi:guide
       position="359.6143,66.67007"
       orientation="0,1"
       id="guide4141" />
    <sodipodi:guide
       position="728.31997,149.50258"
       orientation="1,0"
       id="guide4143" />
    <sodipodi:guide
       position="252.53813,260.61937"
       orientation="1,0"
       id="guide4145" />
    <sodipodi:guide
       position="559.62449,199.00006"
       orientation="1,0"
       id="guide4147" />
    <sodipodi:guide
       position="470.226,195.4645"
       orientation="1,0"
       id="guide5795" />
  </sodipodi:namedview>
  <metadata
     id="metadata7">
    <rdf:RDF>
      <cc:Work
         rdf:about="">
        <dc:format>image/svg+xml</dc:format>
        <dc:type
           rdf:resource="http://purl.org/dc/dcmitype/StillImage" />
        <dc:title></dc:title>
      </cc:Work>
    </rdf:RDF>
  </metadata>
  <g
     transform="translate(0,-574.0158)"
     id="g5697"
     inkscape:groupmode="layer"
     inkscape:label="Capa fondo"
     style="display:inline">
    <rect
       y="573.09302"
       x="1.0101525"
       height="479.26917"
       width="762.0437"
       id="rect5699"
       style="fill:url(#linearGradient5613);fill-opacity:1;stroke:none;stroke-width:10;stroke-miterlimit:4;stroke-dasharray:none;stroke-opacity:1" />
  </g>
  <g
     inkscape:groupmode="layer"
     id="layer2"
     inkscape:label="Capa sombras"
     style="display:inline"
     transform="translate(0,-46.062991)">
    <rect
       style="opacity:0.4;fill:url(#linearGradient5695);fill-opacity:1;fill-rule:evenodd;stroke:none;stroke-width:1px;stroke-linecap:butt;stroke-linejoin:miter;stroke-opacity:1"
       id="rect5642"
       width="178.05713"
       height="99.731224"
       x="-203.88979"
       y="178.30447"
       transform="matrix(0.58803474,-0.80883567,0.80019704,0.59973719,0,0)" />
    <path
       style="opacity:0.4;fill:url(#linearGradient5740);fill-opacity:1;fill-rule:evenodd;stroke:none;stroke-width:1px;stroke-linecap:butt;stroke-linejoin:miter;stroke-opacity:1"
       d="M 305.8268,199.06365 411.93029,77.504214 459.49299,171.00548 388.91506,350.99099 Z"
       id="rect5642-6"
       inkscape:connector-curvature="0"
       sodipodi:nodetypes="ccccc" />
    <path
       style="opacity:0.4;fill:url(#linearGradient5731);fill-opacity:1;fill-rule:evenodd;stroke:none;stroke-width:1px;stroke-linecap:butt;stroke-linejoin:miter;stroke-opacity:1"
       d="m 225.84835,121.58592 32.36529,-51.241209 15.87012,25.076442 -23.56677,47.445757 z"
       id="rect5642-8"
       inkscape:connector-curvature="0"
       sodipodi:nodetypes="ccccc" />
    <path
       style="opacity:0.4;fill:url(#linearGradient5783);fill-opacity:1;fill-rule:evenodd;stroke:none;stroke-width:1px;stroke-linecap:butt;stroke-linejoin:miter;stroke-opacity:1"
       d="m 615.29375,149.54001 77.03123,7.25197 48.08429,37.41473 -84.56861,72.91832 z"
       id="rect5642-1"
       inkscape:connector-curvature="0"
       sodipodi:nodetypes="ccccc" />
    <path
       style="display:inline;opacity:0.4;fill:url(#linearGradient5695-1);fill-opacity:1;fill-rule:evenodd;stroke:none;stroke-width:1px;stroke-linecap:butt;stroke-linejoin:miter;stroke-opacity:1"
       d="M 442.325,218.29378 555.04733,74.797747 548.36192,150.65107 521.77143,282.59283 Z"
       id="rect5642-2"
       inkscape:connector-curvature="0"
       sodipodi:nodetypes="ccccc" />
  </g>
  <g
     inkscape:label="Capa 1"
     inkscape:groupmode="layer"
     id="layer1"
     transform="translate(0,-574.0158)"
     style="display:inline">
    <g
       transform="matrix(0.81087681,0,0,1.1285651,0.67951598,42.749503)"
       style="font-style:normal;font-variant:normal;font-weight:normal;font-stretch:normal;font-size:409.88302612px;line-height:125%;font-family:'Lemon/Milk';-inkscape-font-specification:'Lemon/Milk, Normal';text-align:start;letter-spacing:0px;word-spacing:0px;writing-mode:lr-tb;text-anchor:start;fill:#ffffff;fill-opacity:1;stroke:none;stroke-width:1px;stroke-linecap:butt;stroke-linejoin:miter;stroke-opacity:1"
       id="text4136">
      <path
         d="m 175.88794,506.59976 c -44.83091,0.0477 -77.75198,15.06169 -109.573954,47.0838 -31.821973,32.02211 -47.833029,70.44864 -47.833029,115.2796 0,44.83095 16.011056,83.25749 47.833029,115.07946 31.821974,31.82197 70.248504,47.83303 115.079464,47.83303 22.41548,0 43.42999,-4.2029 63.24367,-12.80885 19.81368,-8.60594 37.2257,-20.21395 52.23607,-35.02418 L 250.8414,738.01084 c -19.21326,19.21326 -42.22916,28.8199 -69.24781,28.8199 -27.01866,0 -50.03455,-9.60664 -69.04768,-28.61977 -19.013129,-19.01313 -28.619762,-42.02902 -28.619762,-69.04767 0,-26.81852 9.606633,-49.83441 28.619762,-69.04768 19.01313,-19.21327 42.02902,-28.8199 69.04768,-28.8199 26.61838,0 49.63427,9.60663 69.04768,28.8199 l 46.03178,-46.03179 c -15.01036,-14.61009 -32.42239,-26.2181 -52.23607,-34.82404 -19.81368,-8.60595 -40.82828,-12.85482 -63.24367,-12.80885 -1.7698,0.004 -3.53556,0.14694 -5.30537,0.14882 z"
         style="font-style:normal;font-variant:normal;font-weight:normal;font-stretch:normal;font-size:409.88302612px;line-height:125%;font-family:'Lemon/Milk';-inkscape-font-specification:'Lemon/Milk, Normal';text-align:start;writing-mode:lr-tb;text-anchor:start;fill:#ffffff;fill-opacity:1"
         id="path4185"
         inkscape:connector-curvature="0"
         sodipodi:nodetypes="ssssssccsssssccsss" />
    </g>
    <g
       transform="matrix(0.80695146,0,0,1.1910394,8.3076246,19.451336)"
       style="font-style:normal;font-variant:normal;font-weight:normal;font-stretch:normal;font-size:409.3500061px;line-height:125%;font-family:'Lemon/Milk';-inkscape-font-specification:'Lemon/Milk, Normal';text-align:start;letter-spacing:0px;word-spacing:0px;writing-mode:lr-tb;text-anchor:start;fill:#ffffff;fill-opacity:1;stroke:none;stroke-width:1px;stroke-linecap:butt;stroke-linejoin:miter;stroke-opacity:1"
       id="text4140">
      <path
         d="m 309.68546,485.98027 0,323.42951 63.62224,0 0,-175.69983 190.47281,181.60902 0,-323.42953 -63.62225,0 0,175.50287 -190.4728,-181.41204 z"
         style="fill:#ffffff;fill-opacity:1"
         id="path4182"
         inkscape:connector-curvature="0" />
    </g>
    <g
       transform="matrix(0.83099976,0,0,1.1565719,6.3468993,19.451336)"
       style="font-style:normal;font-variant:normal;font-weight:normal;font-stretch:normal;font-size:409.88302612px;line-height:125%;font-family:'Lemon/Milk';-inkscape-font-specification:'Lemon/Milk, Normal';text-align:start;letter-spacing:0px;word-spacing:0px;writing-mode:lr-tb;text-anchor:start;fill:#ffffff;fill-opacity:1;stroke:none;stroke-width:1px;stroke-linecap:butt;stroke-linejoin:miter;stroke-opacity:1"
       id="text4136-0">
      <path
         d="m 558.72135,748.94394 36.74715,-48.95118 0,133.0919 64.64463,0 0,-328.62692 -101.59485,140.40345"
         style="font-style:normal;font-variant:normal;font-weight:normal;font-stretch:normal;font-size:409.88302612px;line-height:125%;font-family:'Lemon/Milk';-inkscape-font-specification:'Lemon/Milk, Normal';text-align:start;writing-mode:lr-tb;text-anchor:start;fill:#ffffff;fill-opacity:1"
         id="path4176"
         inkscape:connector-curvature="0"
         sodipodi:nodetypes="cccccc" />
    </g>
    <g
       transform="matrix(0.81314834,0,0,1.1317265,42.137299,40.109237)"
       style="font-style:normal;font-variant:normal;font-weight:normal;font-stretch:normal;font-size:409.88302612px;line-height:125%;font-family:'Lemon/Milk';-inkscape-font-specification:'Lemon/Milk, Normal';text-align:start;letter-spacing:0px;word-spacing:0px;writing-mode:lr-tb;text-anchor:start;fill:#ffffff;fill-opacity:1;stroke:none;stroke-width:1px;stroke-linecap:butt;stroke-linejoin:miter;stroke-opacity:1"
       id="text4136-2">
      <path
         d="m 760.742,766.0156 c -18.01244,0 -32.62253,-14.61009 -32.62253,-32.62253 l -65.24505,0 c 0,27.01866 9.60663,50.03455 28.8199,69.24782 19.21327,19.21327 42.22916,28.8199 69.24782,28.8199 26.81851,0 49.83441,-9.60663 69.04767,-28.8199 19.21327,-19.21327 28.8199,-42.22916 28.8199,-69.24782 0,-18.21257 -4.60317,-33.22294 -13.60939,-44.83095 -15.41064,-19.81368 -37.82612,-35.22433 -62.64326,-42.4293 -23.01589,-6.8047 -20.81437,-4.40304 -40.02764,-16.81161 -9.40649,-6.00414 -14.00967,-14.81023 -14.00967,-26.41824 0,-17.8123 14.81022,-32.62253 32.62252,-32.62253 17.61217,0 32.42239,14.81023 32.42239,32.42239 l 65.04492,0 c 0,-26.81852 -9.60664,-49.83441 -28.8199,-69.04768 -19.21327,-19.21326 -42.22916,-28.8199 -69.04768,-28.8199 -27.01866,0 -50.03455,9.60664 -69.24782,28.8199 -19.21326,19.21327 -28.8199,42.22916 -28.8199,69.04768 0,17.8123 4.40304,32.62253 13.20912,44.63082 14.81023,20.21396 36.82543,36.42515 60.64188,44.63082 22.61561,7.80539 17.01174,5.804 40.22777,14.40995 11.0076,4.00276 16.41134,12.80884 16.41134,26.61838 0,17.8123 -14.81023,32.62252 -32.62253,32.62252 l 0.20014,0.40028 z"
         style="font-style:normal;font-variant:normal;font-weight:normal;font-stretch:normal;font-size:409.88302612px;line-height:125%;font-family:'Lemon/Milk';-inkscape-font-specification:'Lemon/Milk, Normal';text-align:start;writing-mode:lr-tb;text-anchor:start;fill:#ffffff;fill-opacity:1"
         id="path4179"
         inkscape:connector-curvature="0" />
    </g>
  </g>
</svg>
